<svg version="1.1" xmlns="http://www.w3.org/2000/svg" viewBox="0 0 999 459" width="93px" height="43px"><path d="M162 5c5.5 14 4.6 13.3 27 20.3C271.2 51.2 343.1 65 432.5 72.2c21.8 1.8 119.2 1.8 141 0C640.9 66.8 694.9 58.1 755 43c30.7-7.7 76.2-21.5 81.4-24.7 2.1-1.3 3.8-4 6.1-9.8 1.8-4.4 2.8-8.1 2.4-8.3-.4-.2-10.4 2.8-22.1 6.6-86.5 28.4-166.1 43.9-258.3 50.4-39.4 2.8-112.3 1.5-156.5-2.8-75.4-7.2-149.4-22.8-224.6-47.5C171.8 3.1 161.8 0 161.2 0c-.8 0-.5 1.7.8 5zM0 230v86h99.5l4.2-8 4.3-8H18V144H0v86zM247.8 157.2c-.4 12.2-.8 14.3-4.5 25.3-8.1 23.8-25.9 61.2-50.8 106.8-7.4 13.6-13.5 25.2-13.5 25.7 0 .6 4.2 1 9.8 1h9.8l9.9-18.3c13.7-25.1 37.1-71.7 43-85.9 2.7-6.5 5.2-11.4 5.5-11 .4.4 3.3 6.8 6.5 14.2 6.6 15.1 29.8 61.4 42.8 85l8.4 15.5 10.2.3c5.5.1 10.1 0 10.1-.3 0-.4-5.5-10.6-12.2-22.8-24.9-45.5-44.3-85.8-52.4-109.2-3.6-10.4-3.9-11.8-4.2-25.3l-.4-14.2h-17.5l-.5 13.2zM422 230v86h18v-78h92v78h18V144h-18v78h-92v-78h-18v86zM707 154.7c0 13.1-2.1 22.6-8.6 39-9.7 24.6-31.2 67.9-53 106.8-4.1 7.3-7.4 13.8-7.4 14.4 0 .8 3.1 1.1 10.1.9l10.2-.3 8.5-15.5c12.6-23 38.1-73.8 43.7-87.2 2.7-6.5 5.2-11.4 5.6-11 .4.4 2.8 5.6 5.4 11.7 6.3 14.8 24.8 51.9 39.8 79.7l12.2 22.8h10.4c9.4 0 10.3-.2 9.6-1.8-.3-.9-4.4-8.5-9-16.7-28.7-51.7-52.4-102-57.6-122.3-1.3-5.3-1.9-10.9-1.9-19.4V144h-18v10.7zM872 230v86h18l.2-68.4.3-68.5 46.6 68.2 46.7 68.2 7.6.3 7.6.3V144h-18l-.2 68-.3 68.1-46.5-68-46.5-68.1H872v86z"></path><path d="M242.1 266.2c-1.8 4-3.5 7.9-3.8 8.5-.4 1 3.6 1.3 18.1 1.3 10.2 0 18.6-.4 18.6-.9s-1.6-4.3-3.5-8.5l-3.4-7.6h-22.8l-3.2 7.2zM702 264.2c-1.3 2.9-2.9 6.8-3.7 8.5L697 276h37.9l-3.8-8.3-3.8-8.2-11.5-.3-11.5-.3-2.3 5.3zM373.8 399.3c-17.3 4.9-26.4 25.3-18.8 42.4 3.1 7 6.8 11.1 13.3 14.3 5.2 2.6 7.1 3 14.1 3 6.4 0 9.1-.5 13.1-2.4 13.6-6.4 20.1-22.3 15.7-37.7-4.4-15-21.7-24-37.4-19.6zm14.8 7.2c9.4 2.8 15.8 11.9 15.8 22.5 0 24.3-30.4 31.9-41.7 10.5-3.1-6-3-15.5.4-22 3.6-7 11-11.9 19-12.4.8-.1 3.8.6 6.5 1.4zM707.5 398.9c-4.3 1.1-6.6 2.5-10 6.1-2.7 2.9-3 3.7-3 10 0 5.9.3 7.2 2.5 9.5 3.4 3.7 6.1 4.9 17.1 8 11 3.1 13.9 5.3 13.9 10.5 0 5.1-3.4 8.1-9.9 8.8-7.2.7-11.3-.4-17.2-4.4l-5.2-3.5-2.3 2.8-2.3 2.8 2.7 2.3c5.6 4.6 11.3 6.6 20.2 7 7.4.3 9.1 0 12.9-2 6.2-3.2 8.4-6.6 8.8-13.5.7-10.1-3.4-13.9-19-18.2-10.3-2.8-13.2-4.4-14.7-8-1-2.6-1-3.5.7-6.3 1.1-2 3.3-3.8 5.3-4.5 5.8-2.1 15.1 0 20.2 4.5 1.6 1.3 1.9 1.2 3.8-.9 2.9-3.5 2.1-5.1-4-8.1-5.9-2.9-15.3-4.3-20.5-2.9zM263 428.5V458h7v-26h33v26h8v-59h-8v26h-33v-26h-7v29.5zM445 402.5v3.5h19v53h8v-53h19v-7h-46v3.5zM533 428.5V458h44v-6h-36v-20h32v-7h-32v-19h35v-7h-43v29.5zM623 428.5V458h41v-7h-33v-52h-8v29.5z"></path></svg>