<svg id="Layer_1" width="106" height="49" data-name="Layer 1" xmlns="http://www.w3.org/2000/svg" fill="#fff" viewBox="0 0 106 33.42"><defs></defs><path d="M17.07 0s.13.37.5 1.28c.19.47.25.53.61.69a3.47 3.47 0 0 0 .48.19 108.75 108.75 0 0 0 34.71 5.68 108.75 108.75 0 0 0 34.71-5.68 3.47 3.47 0 0 0 .48-.16c.36-.16.42-.22.61-.69.37-.91.5-1.28.5-1.28a107.88 107.88 0 0 1-36.3 6.31A107.88 107.88 0 0 1 17.07 0zM1.81 15.29H0v18.13h10.52l.84-1.59H1.81zM104.19 15.29v14.77L94.08 15.29h-1.55v18.13h1.81V18.66l10.1 14.76H106V15.29h-1.81zM56.52 21v2.59h-9.84v-8.3h-1.82v18.13h1.82v-8.27h9.84v8.27h1.82V15.29h-1.82zM26.07 27.54l-.76 1.72h3.87l-.78-1.72h-2.33z"></path><path d="M28.17 16.88v-1.59h-1.85v1.59a9.28 9.28 0 0 1 0 1c-.37 2.31-3.05 8-7.29 15.52h2A126.53 126.53 0 0 0 27.25 21a124.46 124.46 0 0 0 6.21 12.46h2c-4.21-7.56-6.89-13.25-7.26-15.56a9.28 9.28 0 0 1-.03-1.02zM74.78 27.54l-.76 1.72h3.86l-.77-1.72h-2.33z"></path><path d="M76.9 17.9a9.28 9.28 0 0 1 0-1v-1.61H75v1.59a9.28 9.28 0 0 1 0 1c-.37 2.31-3 8-7.29 15.52h2.07A122.86 122.86 0 0 0 76 21a124.9 124.9 0 0 0 6.18 12.38h2.02C80 25.9 77.28 20.21 76.9 17.9z"></path></svg>